# xmcd CD database file
#
# Track frame offsets:
#	150
#	13932
#	29491
#	38569
#	51635
#	59414
#	73809
#	87916
#	99801
#	109534
#	116909
#	130648
#	141123
#	149915
#	163813
#	173003
#
# Disc length: 2465 seconds
#
# Revision: 2
# Processed by: cddbd v1.5.2PL0 Copyright (c) Steve Scherf et al.
# Submitted via: CDex 1.77
#
DISCID=ea099f10
DTITLE=Various Artist - White Christmas - Amerikanische Weihnacht
DYEAR=2009
DGENRE=Jazz
TTITLE0=Bing Crosby/Silver Bells
TTITLE1=Frank Sinatra/Have Yourself A Merry Little Christmas
TTITLE2=Nat King Cole/Caroling Caroling
TTITLE3=Louis Armstrong/Cool Yule
TTITLE4=Bing Crosby/Joy To The World
TTITLE5=Frank Sinatra/I'll Be Home For Christmas
TTITLE6=Doris Day/Christmas
TTITLE7=Bing Crosby/Good King Wenceslas
TTITLE8=Louis Armstrong/What A Wonderful World
TTITLE9=Bing Crosby/Let's Start The New Year Right
TTITLE10=Frank Sinatra/The Christmas Waltz
TTITLE11=Mahalia Jackson/Amazing Grace
TTITLE12=Nat King Cole/The First Noel
TTITLE13=Bing Crosby/White Christmas
TTITLE14=Frank Sinatra/O Little Town Of Bethlehem
TTITLE15=Bing Crosby/Silent Night
EXTD=YEAR: 2009
EXTT0=
EXTT1=
EXTT2=
EXTT3=
EXTT4=
EXTT5=
EXTT6=
EXTT7=
EXTT8=
EXTT9=
EXTT10=
EXTT11=
EXTT12=
EXTT13=
EXTT14=
EXTT15=
PLAYORDER=
